<mxfile host="app.diagrams.net" agent="Mozilla/5.0 (Windows NT 10.0; Win64; x64) AppleWebKit/537.36 (KHTML, like Gecko) Chrome/130.0.0.0 Safari/537.36" version="24.7.17">
  <diagram name="Страница — 1" id="Z_4q9XQ7YmPHP0ImOttk">
    <mxGraphModel dx="3434" dy="2513" grid="0" gridSize="10" guides="1" tooltips="1" connect="1" arrows="1" fold="1" page="1" pageScale="1" pageWidth="827" pageHeight="1169" math="0" shadow="0">
      <root>
        <mxCell id="0" />
        <mxCell id="1" parent="0" />
        <mxCell id="DrBXpGrBGp4-TtEhzc11-1" value="" style="html=1;whiteSpace=wrap;" parent="1" vertex="1">
          <mxGeometry x="-792" y="-709" width="770" height="520" as="geometry" />
        </mxCell>
        <mxCell id="DrBXpGrBGp4-TtEhzc11-5" value="Запросить описание изображения" style="ellipse;whiteSpace=wrap;html=1;" parent="1" vertex="1">
          <mxGeometry x="-605.14" y="-346.5" width="100" height="60" as="geometry" />
        </mxCell>
        <mxCell id="DrBXpGrBGp4-TtEhzc11-6" value="Решатель задач ИСС по искусству" style="text;align=center;fontStyle=1;verticalAlign=middle;spacingLeft=3;spacingRight=3;strokeColor=none;rotatable=0;points=[[0,0.5],[1,0.5]];portConstraint=eastwest;html=1;" parent="1" vertex="1">
          <mxGeometry x="-702" y="-694" width="520" height="26" as="geometry" />
        </mxCell>
        <mxCell id="DrBXpGrBGp4-TtEhzc11-7" value="Ввод картинки" style="ellipse;whiteSpace=wrap;html=1;" parent="1" vertex="1">
          <mxGeometry x="-760.7500000000001" y="-328" width="88.75" height="50" as="geometry" />
        </mxCell>
        <mxCell id="DrBXpGrBGp4-TtEhzc11-9" value="Ввод названия и имя автора" style="ellipse;whiteSpace=wrap;html=1;" parent="1" vertex="1">
          <mxGeometry x="-767.62" y="-411.5" width="102.5" height="60" as="geometry" />
        </mxCell>
        <mxCell id="DrBXpGrBGp4-TtEhzc11-10" value="&amp;lt;&amp;lt;include&amp;gt;&amp;gt;" style="edgeStyle=none;html=1;endArrow=open;verticalAlign=bottom;dashed=1;labelBackgroundColor=none;rounded=0;entryX=1;entryY=0.5;entryDx=0;entryDy=0;exitX=0.5;exitY=0;exitDx=0;exitDy=0;" parent="1" source="DrBXpGrBGp4-TtEhzc11-5" target="DrBXpGrBGp4-TtEhzc11-9" edge="1">
          <mxGeometry x="0.3775" y="20" width="160" relative="1" as="geometry">
            <mxPoint x="-528.9399999999999" y="-371.53999999999996" as="sourcePoint" />
            <mxPoint x="-693.8900000000007" y="-414" as="targetPoint" />
            <Array as="points">
              <mxPoint x="-555" y="-381" />
            </Array>
            <mxPoint x="1" as="offset" />
          </mxGeometry>
        </mxCell>
        <mxCell id="DrBXpGrBGp4-TtEhzc11-11" value="Сгенерировать изображение" style="ellipse;whiteSpace=wrap;html=1;" parent="1" vertex="1">
          <mxGeometry x="-395" y="-351.5" width="100" height="65" as="geometry" />
        </mxCell>
        <mxCell id="DrBXpGrBGp4-TtEhzc11-13" value="" style="endArrow=none;html=1;edgeStyle=orthogonalEdgeStyle;rounded=0;exitX=0.5;exitY=1;exitDx=0;exitDy=0;entryX=0.5;entryY=0.5;entryDx=0;entryDy=0;entryPerimeter=0;" parent="1" source="DrBXpGrBGp4-TtEhzc11-5" target="DrBXpGrBGp4-TtEhzc11-38" edge="1">
          <mxGeometry relative="1" as="geometry">
            <mxPoint x="-429.51" y="-214" as="sourcePoint" />
            <mxPoint x="-269.51" y="-214" as="targetPoint" />
            <Array as="points">
              <mxPoint x="-555" y="-144" />
              <mxPoint x="-455" y="-144" />
            </Array>
          </mxGeometry>
        </mxCell>
        <mxCell id="DrBXpGrBGp4-TtEhzc11-14" value="Получение информации о картине" style="ellipse;whiteSpace=wrap;html=1;" parent="1" vertex="1">
          <mxGeometry x="-469.51" y="-541.5" width="100" height="70" as="geometry" />
        </mxCell>
        <mxCell id="DrBXpGrBGp4-TtEhzc11-15" value="Ввод описания изображения" style="ellipse;whiteSpace=wrap;html=1;" parent="1" vertex="1">
          <mxGeometry x="-586.39" y="-636.5" width="116.88" height="70" as="geometry" />
        </mxCell>
        <mxCell id="DrBXpGrBGp4-TtEhzc11-16" value="&amp;lt;&amp;lt;include&amp;gt;&amp;gt;" style="edgeStyle=none;html=1;endArrow=open;verticalAlign=bottom;dashed=1;labelBackgroundColor=none;rounded=0;entryX=1;entryY=0.5;entryDx=0;entryDy=0;exitX=0;exitY=0.5;exitDx=0;exitDy=0;" parent="1" source="DrBXpGrBGp4-TtEhzc11-14" target="DrBXpGrBGp4-TtEhzc11-15" edge="1">
          <mxGeometry y="-8" width="160" relative="1" as="geometry">
            <mxPoint x="-192.37" y="-601.5" as="sourcePoint" />
            <mxPoint x="-331" y="-661.5" as="targetPoint" />
            <Array as="points" />
            <mxPoint as="offset" />
          </mxGeometry>
        </mxCell>
        <mxCell id="DrBXpGrBGp4-TtEhzc11-33" value="" style="endArrow=none;html=1;edgeStyle=orthogonalEdgeStyle;rounded=0;entryX=1;entryY=0.5;entryDx=0;entryDy=0;exitX=0.5;exitY=0;exitDx=0;exitDy=0;exitPerimeter=0;" parent="1" source="DrBXpGrBGp4-TtEhzc11-38" target="DrBXpGrBGp4-TtEhzc11-39" edge="1">
          <mxGeometry relative="1" as="geometry">
            <mxPoint x="348" y="-394" as="sourcePoint" />
            <mxPoint x="348" y="-554" as="targetPoint" />
            <Array as="points">
              <mxPoint x="-262" y="-144" />
              <mxPoint x="-262" y="-614" />
            </Array>
          </mxGeometry>
        </mxCell>
        <mxCell id="DrBXpGrBGp4-TtEhzc11-38" value="Пользователь" style="shape=umlActor;verticalLabelPosition=bottom;verticalAlign=top;html=1;outlineConnect=0;" parent="1" vertex="1">
          <mxGeometry x="-469.51" y="-144" width="30" height="60" as="geometry" />
        </mxCell>
        <mxCell id="DrBXpGrBGp4-TtEhzc11-39" value="Врисовать объект в существующее изображение" style="ellipse;whiteSpace=wrap;html=1;" parent="1" vertex="1">
          <mxGeometry x="-442" y="-644" width="160" height="60" as="geometry" />
        </mxCell>
        <mxCell id="DrBXpGrBGp4-TtEhzc11-57" value="Ввод описания объекта" style="ellipse;whiteSpace=wrap;html=1;" parent="1" vertex="1">
          <mxGeometry x="-154.5" y="-654" width="100" height="40" as="geometry" />
        </mxCell>
        <mxCell id="DrBXpGrBGp4-TtEhzc11-60" value="&amp;lt;&amp;lt;include&amp;gt;&amp;gt;" style="edgeStyle=none;html=1;endArrow=open;verticalAlign=bottom;dashed=1;labelBackgroundColor=none;rounded=0;entryX=0;entryY=0.5;entryDx=0;entryDy=0;exitX=1;exitY=0;exitDx=0;exitDy=0;" parent="1" source="DrBXpGrBGp4-TtEhzc11-39" target="DrBXpGrBGp4-TtEhzc11-57" edge="1">
          <mxGeometry x="-0.028" y="9" width="160" relative="1" as="geometry">
            <mxPoint x="-198" y="-334" as="sourcePoint" />
            <mxPoint x="-293" y="-334" as="targetPoint" />
            <Array as="points" />
            <mxPoint as="offset" />
          </mxGeometry>
        </mxCell>
        <mxCell id="DrBXpGrBGp4-TtEhzc11-69" value="Ввод изображения" style="ellipse;whiteSpace=wrap;html=1;" parent="1" vertex="1">
          <mxGeometry x="-212" y="-581.5" width="120" height="40" as="geometry" />
        </mxCell>
        <mxCell id="DrBXpGrBGp4-TtEhzc11-70" value="&amp;lt;&amp;lt;include&amp;gt;&amp;gt;" style="edgeStyle=none;html=1;endArrow=open;verticalAlign=bottom;dashed=1;labelBackgroundColor=none;rounded=0;exitX=0.5;exitY=1;exitDx=0;exitDy=0;entryX=0;entryY=0.5;entryDx=0;entryDy=0;" parent="1" source="DrBXpGrBGp4-TtEhzc11-39" target="DrBXpGrBGp4-TtEhzc11-69" edge="1">
          <mxGeometry x="0.2874" y="11" width="160" relative="1" as="geometry">
            <mxPoint x="-35" y="-397" as="sourcePoint" />
            <mxPoint x="-112" y="-694" as="targetPoint" />
            <Array as="points">
              <mxPoint x="-352" y="-561" />
            </Array>
            <mxPoint as="offset" />
          </mxGeometry>
        </mxCell>
        <mxCell id="DrBXpGrBGp4-TtEhzc11-72" value="&amp;lt;&amp;lt;extend&amp;gt;&amp;gt;" style="edgeStyle=none;html=1;endArrow=open;verticalAlign=bottom;dashed=1;labelBackgroundColor=none;rounded=0;entryX=1;entryY=0.5;entryDx=0;entryDy=0;exitX=0;exitY=0.5;exitDx=0;exitDy=0;" parent="1" source="DrBXpGrBGp4-TtEhzc11-5" target="DrBXpGrBGp4-TtEhzc11-7" edge="1">
          <mxGeometry x="-0.0871" y="25" width="160" relative="1" as="geometry">
            <mxPoint x="-1085.750000000025" y="-257.0000000000002" as="sourcePoint" />
            <mxPoint x="-1128.12" y="-194.5" as="targetPoint" />
            <Array as="points" />
            <mxPoint as="offset" />
          </mxGeometry>
        </mxCell>
        <mxCell id="DrBXpGrBGp4-TtEhzc11-73" value="Запросить жанр изображения" style="ellipse;whiteSpace=wrap;html=1;" parent="1" vertex="1">
          <mxGeometry x="-612" y="-477.75" width="100" height="60" as="geometry" />
        </mxCell>
        <mxCell id="DrBXpGrBGp4-TtEhzc11-74" value="Ввод картинки" style="ellipse;whiteSpace=wrap;html=1;" parent="1" vertex="1">
          <mxGeometry x="-760.75" y="-474" width="88.75" height="50" as="geometry" />
        </mxCell>
        <mxCell id="DrBXpGrBGp4-TtEhzc11-75" value="Ввод названия и имя автора" style="ellipse;whiteSpace=wrap;html=1;" parent="1" vertex="1">
          <mxGeometry x="-742" y="-566.5" width="102.5" height="60" as="geometry" />
        </mxCell>
        <mxCell id="DrBXpGrBGp4-TtEhzc11-76" value="&amp;lt;&amp;lt;include&amp;gt;&amp;gt;" style="edgeStyle=none;html=1;endArrow=open;verticalAlign=bottom;dashed=1;labelBackgroundColor=none;rounded=0;entryX=1;entryY=0.5;entryDx=0;entryDy=0;exitX=0.5;exitY=0;exitDx=0;exitDy=0;" parent="1" source="DrBXpGrBGp4-TtEhzc11-73" target="DrBXpGrBGp4-TtEhzc11-75" edge="1">
          <mxGeometry x="0.1471" y="-9" width="160" relative="1" as="geometry">
            <mxPoint x="-764.55" y="-331.53999999999996" as="sourcePoint" />
            <mxPoint x="-929.5000000000007" y="-374" as="targetPoint" />
            <Array as="points">
              <mxPoint x="-562" y="-536" />
            </Array>
            <mxPoint as="offset" />
          </mxGeometry>
        </mxCell>
        <mxCell id="DrBXpGrBGp4-TtEhzc11-77" value="" style="endArrow=none;html=1;edgeStyle=orthogonalEdgeStyle;rounded=0;exitX=1;exitY=0.5;exitDx=0;exitDy=0;entryX=0.5;entryY=0;entryDx=0;entryDy=0;entryPerimeter=0;" parent="1" source="DrBXpGrBGp4-TtEhzc11-73" target="DrBXpGrBGp4-TtEhzc11-38" edge="1">
          <mxGeometry relative="1" as="geometry">
            <mxPoint x="-665.12" y="-174" as="sourcePoint" />
            <mxPoint x="-690.12" y="-74" as="targetPoint" />
            <Array as="points">
              <mxPoint x="-455" y="-451" />
            </Array>
          </mxGeometry>
        </mxCell>
        <mxCell id="DrBXpGrBGp4-TtEhzc11-80" value="&amp;lt;&amp;lt;extend&amp;gt;&amp;gt;" style="edgeStyle=none;html=1;endArrow=open;verticalAlign=bottom;dashed=1;labelBackgroundColor=none;rounded=0;entryX=1;entryY=0.5;entryDx=0;entryDy=0;exitX=0;exitY=0.5;exitDx=0;exitDy=0;" parent="1" source="DrBXpGrBGp4-TtEhzc11-73" target="DrBXpGrBGp4-TtEhzc11-74" edge="1">
          <mxGeometry x="-0.0871" y="25" width="160" relative="1" as="geometry">
            <mxPoint x="-918.1199999999999" y="-414" as="sourcePoint" />
            <mxPoint x="-883.12" y="-214" as="targetPoint" />
            <Array as="points" />
            <mxPoint as="offset" />
          </mxGeometry>
        </mxCell>
        <mxCell id="DrBXpGrBGp4-TtEhzc11-82" value="" style="endArrow=none;html=1;rounded=0;exitX=0.5;exitY=0;exitDx=0;exitDy=0;exitPerimeter=0;entryX=0.5;entryY=1;entryDx=0;entryDy=0;" parent="1" source="DrBXpGrBGp4-TtEhzc11-38" target="DrBXpGrBGp4-TtEhzc11-14" edge="1">
          <mxGeometry width="50" height="50" relative="1" as="geometry">
            <mxPoint x="-442" y="-334" as="sourcePoint" />
            <mxPoint x="-392" y="-384" as="targetPoint" />
            <Array as="points">
              <mxPoint x="-422" y="-144" />
            </Array>
          </mxGeometry>
        </mxCell>
        <mxCell id="DrBXpGrBGp4-TtEhzc11-84" value="Ввод описания изображения" style="ellipse;whiteSpace=wrap;html=1;" parent="1" vertex="1">
          <mxGeometry x="-403.44000000000005" y="-461.5" width="116.88" height="70" as="geometry" />
        </mxCell>
        <mxCell id="DrBXpGrBGp4-TtEhzc11-85" value="&amp;lt;&amp;lt;include&amp;gt;&amp;gt;" style="edgeStyle=none;html=1;endArrow=open;verticalAlign=bottom;dashed=1;labelBackgroundColor=none;rounded=0;entryX=0.5;entryY=1;entryDx=0;entryDy=0;exitX=0.5;exitY=0;exitDx=0;exitDy=0;" parent="1" source="DrBXpGrBGp4-TtEhzc11-11" target="DrBXpGrBGp4-TtEhzc11-84" edge="1">
          <mxGeometry x="-0.375" y="-13" width="160" relative="1" as="geometry">
            <mxPoint x="-460" y="-496" as="sourcePoint" />
            <mxPoint x="-460" y="-591" as="targetPoint" />
            <Array as="points" />
            <mxPoint as="offset" />
          </mxGeometry>
        </mxCell>
        <mxCell id="DrBXpGrBGp4-TtEhzc11-86" value="" style="endArrow=none;html=1;rounded=0;exitX=0.5;exitY=0;exitDx=0;exitDy=0;exitPerimeter=0;entryX=0.5;entryY=1;entryDx=0;entryDy=0;" parent="1" source="DrBXpGrBGp4-TtEhzc11-38" target="DrBXpGrBGp4-TtEhzc11-11" edge="1">
          <mxGeometry width="50" height="50" relative="1" as="geometry">
            <mxPoint x="-362" y="-154" as="sourcePoint" />
            <mxPoint x="-312" y="-204" as="targetPoint" />
            <Array as="points">
              <mxPoint x="-345" y="-144" />
            </Array>
          </mxGeometry>
        </mxCell>
      </root>
    </mxGraphModel>
  </diagram>
</mxfile>
